<?xml version="1.0" encoding="UTF-8" standalone="no"?>
<!-- Created with Inkscape (http://www.inkscape.org/) -->

<svg
   width="170.6701mm"
   height="40.61808mm"
   viewBox="0 0 170.6701 40.61808"
   version="1.1"
   id="svg1"
   xml:space="preserve"
   xmlns="http://www.w3.org/2000/svg"
   xmlns:svg="http://www.w3.org/2000/svg"><defs
     id="defs1"><linearGradient
       id="gBack-1"
       x1="72.83886"
       y1="51.401131"
       x2="331.8215"
       y2="310.38376"
       gradientTransform="scale(0.9884833,1.0116509)"
       gradientUnits="userSpaceOnUse"><stop
         offset="0%"
         stop-color="#0c55b8"
         id="stop1-0-6" /><stop
         offset="100%"
         stop-color="#073474"
         id="stop2-9-8" /></linearGradient><linearGradient
       id="gMiddle-5"
       x1="129.4913"
       y1="90.94046"
       x2="388.47394"
       y2="349.9231"
       gradientTransform="scale(0.9884833,1.0116509)"
       gradientUnits="userSpaceOnUse"><stop
         offset="0"
         stop-color="#72baff"
         id="stop3-4-7"
         style="stop-color:#0060bd;stop-opacity:1;" /><stop
         offset="0.51999998"
         stop-color="#3d8ef1"
         id="stop4-8-6"
         style="stop-color:#1069d7;stop-opacity:1;" /><stop
         offset="1"
         stop-color="#1e64d0"
         id="stop5-8-1"
         style="stop-color:#1850a6;stop-opacity:1;" /></linearGradient><linearGradient
       id="gFront-8"
       x1="186.14375"
       y1="130.4798"
       x2="445.1264"
       y2="389.46243"
       gradientTransform="scale(0.9884833,1.0116509)"
       gradientUnits="userSpaceOnUse"><stop
         offset="0"
         stop-color="#e9f5ff"
         stop-opacity="0.98"
         id="stop6-2-9"
         style="stop-color:#47afff;stop-opacity:0.81049562;" /><stop
         offset="0.51999998"
         stop-color="#b7dbff"
         stop-opacity="0.92"
         id="stop7-4-2"
         style="stop-color:#82c1ff;stop-opacity:0.92000002;" /><stop
         offset="1"
         stop-color="#7db7f4"
         stop-opacity="0.90"
         id="stop8-5-7"
         style="stop-color:#7ab6f4;stop-opacity:0.89999998;" /></linearGradient></defs><g
     id="layer1"
     transform="translate(-2.7536691,-57.079868)"><path
       d="M 52.266115,92.394855 V 75.968623 h 6.83507 q 1.83004,0 3.08681,0.529167 1.25677,0.529167 1.89618,1.466234 0.65044,0.937067 0.65044,2.17179 0,0.948092 -0.38585,1.697745 -0.37483,0.738629 -1.05834,1.234724 -0.6835,0.496094 -1.60955,0.705556 v 0.02205 q 1.02526,0.06615 1.84106,0.573264 0.82683,0.496094 1.30087,1.355991 0.48507,0.859897 0.48507,2.028474 0,1.355991 -0.66146,2.403301 -0.66146,1.04731 -1.94028,1.642624 -1.27882,0.595313 -3.10885,0.595313 z m 3.86953,-3.042712 h 2.8112 q 1.08039,0 1.69775,-0.496094 0.61736,-0.507119 0.61736,-1.389064 0,-0.606337 -0.27561,-1.036286 -0.27561,-0.429948 -0.79375,-0.661459 -0.50712,-0.242535 -1.2237,-0.242535 h -2.83325 z m 0,-6.713809 h 2.59072 q 0.63941,0 1.0914,-0.220486 0.46302,-0.220486 0.70556,-0.628386 0.25356,-0.4079 0.25356,-0.97014 0,-0.826824 -0.55122,-1.311894 -0.55121,-0.496094 -1.4993,-0.496094 h -2.59072 z m 16.24984,10.021104 q -1.78594,0 -3.14193,-0.771702 -1.34496,-0.782726 -2.10564,-2.160766 -0.74965,-1.37804 -0.74965,-3.152955 0,-1.774915 0.74965,-3.152954 0.76068,-1.37804 2.09462,-2.149742 1.33394,-0.782726 3.05374,-0.782726 1.31189,0 2.39227,0.440972 1.08039,0.429949 1.86311,1.234724 0.79375,0.804775 1.2237,1.907207 0.42995,1.091407 0.42995,2.414325 v 1.025261 h -10.57232 v -2.271009 h 8.7974 l -1.74184,0.463021 q 0,-0.749653 -0.27561,-1.289845 -0.2756,-0.540191 -0.79375,-0.826823 -0.50712,-0.297657 -1.2237,-0.297657 -0.71658,0 -1.23472,0.297657 -0.50712,0.286632 -0.79375,0.826823 -0.27561,0.540192 -0.27561,1.289845 v 1.675697 q 0,0.771702 0.28663,1.355991 0.29766,0.573264 0.83785,0.881945 0.55122,0.308681 1.3119,0.308681 0.56224,0 1.00321,-0.154341 0.44097,-0.15434 0.73863,-0.440972 0.29765,-0.286633 0.44097,-0.661459 h 3.40651 q -0.20946,1.168577 -1.01423,2.072571 -0.80478,0.89297 -2.02848,1.411113 -1.21267,0.507118 -2.67891,0.507118 z m 7.39732,-0.264583 V 80.753176 h 3.6711 v 2.050523 h 0.0331 q 0.3197,-1.113456 0.99219,-1.598526 0.6835,-0.496094 1.85208,-0.496094 0.30868,0 0.55122,0.01102 0.25356,0 0.48507,0.01102 v 3.130906 q -0.20946,-0.01103 -0.65044,-0.02205 -0.42994,-0.01102 -0.84887,-0.01102 -0.67248,0 -1.19063,0.30868 -0.51814,0.297657 -0.81579,0.881946 -0.28664,0.584289 -0.28664,1.411112 v 5.964156 z m 14.57634,4.762505 q -1.79696,0 -2.98759,-0.496095 -1.19062,-0.496094 -1.84106,-1.378039 -0.65043,-0.870921 -0.82682,-1.984377 h 3.627 q 0.0992,0.352778 0.37483,0.617361 0.2756,0.264584 0.69453,0.4079 0.41892,0.143316 0.95911,0.143316 1.05834,0 1.60955,-0.595313 0.55122,-0.584289 0.55122,-1.741842 v -1.796964 h -0.011 q -0.30867,0.683508 -0.80477,1.124481 -0.48507,0.440972 -1.1355,0.650434 -0.63941,0.209462 -1.40009,0.209462 -1.52136,0 -2.65686,-0.749653 -1.13551,-0.760678 -1.76389,-2.083596 -0.61736,-1.322918 -0.61736,-3.031687 0,-1.730818 0.63941,-3.075784 0.63941,-1.344967 1.76389,-2.105645 1.12448,-0.771702 2.60174,-0.771702 0.76067,0 1.37803,0.220486 0.62839,0.209462 1.13551,0.628386 0.50712,0.418924 0.85989,1.036286 h 0.011 v -1.631599 h 3.770315 v 11.002268 q 0,1.896183 -0.727605,3.086809 -0.71658,1.190626 -2.05053,1.752866 -1.33393,0.562241 -3.15295,0.562241 z m -0.13229,-7.816241 q 0.72761,0 1.2678,-0.363803 0.54019,-0.363802 0.83785,-1.025261 0.30867,-0.672483 0.30867,-1.565453 0,-0.89297 -0.30867,-1.554429 -0.29766,-0.661459 -0.83785,-1.025261 -0.54019,-0.363803 -1.2678,-0.363803 -0.68351,0 -1.20165,0.352779 -0.50712,0.352778 -0.78272,1.014237 -0.26459,0.661459 -0.26459,1.576477 0,0.926043 0.26459,1.587502 0.2756,0.661459 0.78272,1.014237 0.51814,0.352778 1.20165,0.352778 z m 8.475935,-8.587943 h 3.80339 v 12.347235 q 0,1.267796 -0.47405,2.138717 -0.47404,0.870921 -1.42213,1.311894 -0.93707,0.451998 -2.35921,0.451998 h -1.48828 v -2.943493 h 0.7717 q 0.61737,0 0.89297,-0.319706 0.27561,-0.308681 0.27561,-1.025261 z m 1.88516,-1.135504 q -0.91502,0 -1.49931,-0.540192 -0.58429,-0.540191 -0.58429,-1.37804 0,-0.837848 0.58429,-1.367015 0.58429,-0.540191 1.49931,-0.540191 0.91502,0 1.49931,0.540191 0.59531,0.529167 0.59531,1.367015 0,0.837849 -0.59531,1.37804 -0.58429,0.540192 -1.49931,0.540192 z m 9.67935,13.041766 q -1.81901,0 -3.20808,-0.749653 -1.37803,-0.749654 -2.14974,-2.116669 -0.7717,-1.367015 -0.7717,-3.219101 0,-1.84106 0.7717,-3.208076 0.77171,-1.367015 2.14974,-2.116669 1.38907,-0.760677 3.20808,-0.760677 1.83004,0 3.19705,0.760677 1.37804,0.749654 2.14974,2.116669 0.77171,1.367016 0.77171,3.208076 0,1.852086 -0.77171,3.219101 -0.7717,1.367015 -2.14974,2.116669 -1.36701,0.749653 -3.19705,0.749653 z m 0,-3.020662 q 0.66146,0 1.16858,-0.352779 0.51814,-0.363802 0.8158,-1.04731 0.29765,-0.683507 0.29765,-1.664672 0,-0.981164 -0.29765,-1.664671 -0.29766,-0.683508 -0.8158,-1.036286 -0.50712,-0.363803 -1.16858,-0.363803 -0.66146,0 -1.1796,0.363803 -0.51814,0.352778 -0.8158,1.036286 -0.28663,0.683507 -0.28663,1.664671 0,0.981165 0.28663,1.664672 0.29766,0.683508 0.8158,1.04731 0.51814,0.352779 1.1796,0.352779 z m 11.54246,-3.571879 v 6.327958 h -3.79237 V 75.968623 h 3.79237 v 7.904435 h -0.60634 q 0.54019,-1.543405 1.56545,-2.458423 1.02527,-0.915018 2.70096,-0.915018 1.2678,0 2.16077,0.551216 0.89297,0.540191 1.36701,1.565453 0.47405,1.025261 0.47405,2.458422 v 7.320147 h -3.79237 v -6.526396 q 0,-1.036286 -0.49609,-1.576477 -0.4961,-0.551216 -1.40009,-0.551216 -0.59531,0 -1.04731,0.253559 -0.44097,0.25356 -0.68351,0.771702 -0.24253,0.507119 -0.24253,1.30087 z m 13.33943,6.526395 q -1.16858,0 -2.07258,-0.374826 -0.89297,-0.385851 -1.41111,-1.146529 -0.50712,-0.771702 -0.50712,-1.929256 0,-0.981164 0.35278,-1.642623 0.35278,-0.672483 0.97014,-1.091407 0.62839,-0.418924 1.44419,-0.628386 0.82682,-0.220487 1.75286,-0.297657 1.03629,-0.08819 1.66467,-0.187413 0.62839,-0.110243 0.904,-0.297657 0.27561,-0.198438 0.27561,-0.551216 v -0.05512 q 0,-0.352778 -0.19844,-0.606338 -0.19844,-0.264583 -0.56224,-0.407899 -0.3638,-0.154341 -0.8599,-0.154341 -0.52917,0 -0.91502,0.165365 -0.38585,0.15434 -0.60633,0.451997 -0.22049,0.286632 -0.26459,0.683508 h -3.52778 q 0.0882,-1.267797 0.73863,-2.160767 0.65044,-0.903994 1.83004,-1.378039 1.19062,-0.48507 2.87734,-0.48507 1.2678,0 2.23794,0.275608 0.98116,0.264583 1.65365,0.793751 0.67248,0.518143 1.01423,1.27882 0.34176,0.749654 0.34176,1.708769 v 7.83829 h -3.70417 v -1.6316 h -0.0441 q -0.35278,0.628386 -0.82682,1.036286 -0.47405,0.396875 -1.10243,0.595313 -0.62839,0.198437 -1.45521,0.198437 z m 1.15755,-2.480471 q 0.62839,0 1.1355,-0.242535 0.51815,-0.242535 0.8158,-0.661459 0.29766,-0.429948 0.29766,-1.003213 V 87.14728 q -0.15434,0.06615 -0.3638,0.132292 -0.20946,0.06615 -0.47405,0.121267 -0.25356,0.05512 -0.56224,0.110243 -0.30868,0.05512 -0.66146,0.121268 -0.50712,0.07717 -0.90399,0.242535 -0.38585,0.165365 -0.61736,0.440972 -0.22049,0.264584 -0.22049,0.650435 0,0.363803 0.19844,0.617362 0.19844,0.253559 0.54019,0.396875 0.35278,0.132292 0.8158,0.132292 z m 11.88421,-4.045924 v 6.327958 h -3.79236 V 80.753176 h 3.74827 v 3.119882 h -0.56224 q 0.54019,-1.543405 1.56545,-2.458423 1.02526,-0.915018 2.70096,-0.915018 1.26779,0 2.16076,0.551216 0.89297,0.540191 1.36702,1.565453 0.47404,1.025261 0.47404,2.458422 v 7.320147 h -3.79236 v -6.526396 q 0,-1.036286 -0.4961,-1.576477 -0.49609,-0.551216 -1.40008,-0.551216 -0.59532,0 -1.04731,0.253559 -0.44098,0.25356 -0.68351,0.771702 -0.24254,0.507119 -0.24254,1.30087 z m 13.57093,0 v 6.327958 h -3.79236 V 80.753176 h 3.74827 v 3.119882 h -0.56224 q 0.54019,-1.543405 1.56545,-2.458423 1.02526,-0.915018 2.70096,-0.915018 1.26779,0 2.16076,0.551216 0.89297,0.540191 1.36702,1.565453 0.47404,1.025261 0.47404,2.458422 v 7.320147 h -3.79236 v -6.526396 q 0,-1.036286 -0.4961,-1.576477 -0.49609,-0.551216 -1.40008,-0.551216 -0.59532,0 -1.04731,0.253559 -0.44098,0.25356 -0.68351,0.771702 -0.24254,0.507119 -0.24254,1.30087 z"
       id="text14-2-4"
       style="font-weight:800;font-size:22.5778px;font-family:Inter;-inkscape-font-specification:'Inter Ultra-Bold';fill:#71a8e0;fill-opacity:1;stroke-width:0.264583"
       aria-label="Bergjohann" /><path
       d="M 52.462005,69.513772 V 58.281507 h 2.28662 v 9.324169 h 5.68566 v 1.908096 z m 11.20909,-5.70111 -1.96989,-0.355354 q 0.33218,-1.189661 1.14331,-1.761317 0.81113,-0.571655 2.41022,-0.571655 1.45232,0 2.16303,0.347629 0.7107,0.339902 0.99653,0.872932 0.29356,0.525305 0.29356,1.938995 l -0.0232,2.533827 q 0,1.08151 0.10042,1.599091 0.10815,0.509856 0.39398,1.096962 h -2.14757 q -0.085,-0.216303 -0.20858,-0.641182 -0.0541,-0.193128 -0.0772,-0.254928 -0.55621,0.540756 -1.18966,0.811133 -0.63346,0.270378 -1.35189,0.270378 -1.26692,0 -2.0008,-0.687532 -0.72616,-0.687532 -0.72616,-1.738143 0,-0.695257 0.33218,-1.236013 0.33218,-0.548481 0.92701,-0.834309 0.60256,-0.293553 1.73042,-0.509855 1.52184,-0.285828 2.10895,-0.533031 v -0.216302 q 0,-0.625731 -0.30901,-0.888384 -0.309,-0.270377 -1.16648,-0.270377 -0.57938,0 -0.90384,0.231751 -0.32445,0.224028 -0.5253,0.795684 z m 2.90463,1.761318 q -0.41715,0.139051 -1.32099,0.332179 -0.90383,0.193127 -1.18193,0.378529 -0.42488,0.301278 -0.42488,0.764782 0,0.45578 0.3399,0.787959 0.3399,0.332178 0.86521,0.332178 0.58711,0 1.12014,-0.386253 0.39398,-0.293554 0.51758,-0.718433 0.085,-0.278103 0.085,-1.058336 z m 9.6718,3.939792 v -1.228288 q -0.44805,0.656631 -1.18193,1.03516 -0.72616,0.378529 -1.53729,0.378529 -0.82659,0 -1.48322,-0.363078 -0.65663,-0.363079 -0.95018,-1.019711 -0.29356,-0.656632 -0.29356,-1.815394 v -5.191252 h 2.17075 v 3.769837 q 0,1.730418 0.11588,2.124397 0.1236,0.386255 0.44033,0.618007 0.31672,0.224027 0.8034,0.224027 0.55621,0 0.99654,-0.301278 0.44033,-0.309003 0.60256,-0.757058 0.16222,-0.45578 0.16222,-2.217098 v -3.460834 h 2.17075 v 8.204034 z m 6.3423,0 h -2.17075 v -8.204034 h 2.01624 v 1.166485 q 0.51758,-0.826582 0.92701,-1.089235 0.41716,-0.262652 0.94246,-0.262652 0.74161,0 1.42914,0.409429 l -0.67208,1.892643 q -0.54848,-0.355354 -1.01971,-0.355354 -0.45578,0 -0.77251,0.254928 -0.31673,0.247202 -0.50213,0.903834 -0.17767,0.656632 -0.17767,2.750129 z m 4.07884,-9.316445 v -2.00852 h 2.17074 v 2.00852 z m 0,9.316445 v -8.204034 h 2.17074 v 8.204034 z m 11.9198,0 h -2.01625 v -1.205114 q -0.50213,0.702983 -1.18966,1.050612 -0.67981,0.339903 -1.37506,0.339903 -1.41369,0 -2.42568,-1.135586 -1.00426,-1.143313 -1.00426,-3.182734 0,-2.085771 0.98108,-3.167282 0.98109,-1.089235 2.47975,-1.089235 1.37507,0 2.37933,1.143311 v -4.07884 h 2.17075 z m -5.79381,-4.279696 q 0,1.313265 0.36308,1.900371 0.5253,0.849758 1.46776,0.849758 0.74933,0 1.27464,-0.633456 0.52531,-0.641182 0.52531,-1.908095 0,-1.41369 -0.50986,-2.031696 -0.50985,-0.625731 -1.30554,-0.625731 -0.77251,0 -1.29782,0.618006 -0.51757,0.610281 -0.51757,1.830843 z"
       id="text16-3-3"
       style="font-weight:bold;font-size:19.7556px;font-family:Arial;-inkscape-font-specification:'Arial Bold';fill:#0b51af;fill-opacity:1;stroke-width:0.211887"
       aria-label="Laurid" /><g
       id="g3-1"
       transform="matrix(0.10951629,0,0,0.10951629,-8.3065037,61.377623)"><g
         transform="matrix(1,-0.3,0,1,28.991119,0)"
         id="g8-2"><rect
           x="74"
           y="54"
           width="252"
           height="258"
           rx="26"
           ry="26"
           fill="url(#gBack)"
           stroke="#0c5ac5"
           stroke-width="4"
           id="rect8-3"
           style="fill:url(#gBack-1)" /></g><g
         transform="matrix(1,-0.3,0,1,28.991119,0)"
         id="g9-3"><rect
           x="130"
           y="94"
           width="252"
           height="258"
           rx="26"
           ry="26"
           fill="url(#gMiddle)"
           fill-opacity="0.95"
           stroke="#8bc6ff"
           stroke-width="4"
           id="rect9-4"
           style="fill:url(#gMiddle-5);stroke:#448dd3;stroke-opacity:1" /></g><g
         transform="matrix(1,-0.3,0,1,28.991119,0)"
         id="g13-1"><rect
           x="186"
           y="134"
           width="252"
           height="258"
           rx="26"
           ry="26"
           fill="url(#gFront)"
           stroke="#ffffff"
           stroke-width="4"
           id="rect10-1"
           style="fill:url(#gFront-8);stroke:#b1b1b1;stroke-opacity:1" /><!-- UI thumbnail --><rect
           x="216"
           y="171"
           width="84"
           height="58"
           rx="12"
           ry="12"
           fill="#ffffff"
           fill-opacity="0.96"
           id="rect11-3"
           style="fill:#d6d6d6;fill-opacity:0.96" /><!-- UI text lines --><rect
           x="216"
           y="250"
           width="154"
           height="17"
           rx="8.5"
           ry="8.5"
           fill="#ffffff"
           fill-opacity="0.96"
           id="rect12-8"
           style="fill:#d6d6d6;fill-opacity:0.96" /><rect
           x="216"
           y="284"
           width="120"
           height="17"
           rx="8.5"
           ry="8.5"
           fill="#ffffff"
           fill-opacity="0.96"
           id="rect13-5-7"
           style="fill:#d6d6d6;fill-opacity:0.96" /></g></g></g></svg>
