<?xml version="1.0" encoding="UTF-8" standalone="no"?>
<!-- Created with Inkscape (http://www.inkscape.org/) -->

<svg
   width="170.6701mm"
   height="40.622143mm"
   viewBox="0 0 170.6701 40.622143"
   version="1.1"
   id="svg1"
   xml:space="preserve"
   inkscape:version="1.4.4 (dcaf3e7, 2026-05-05)"
   sodipodi:docname="logog-bergjohann.svg"
   xmlns:inkscape="http://www.inkscape.org/namespaces/inkscape"
   xmlns:sodipodi="http://sodipodi.sourceforge.net/DTD/sodipodi-0.dtd"
   xmlns:xlink="http://www.w3.org/1999/xlink"
   xmlns="http://www.w3.org/2000/svg"
   xmlns:svg="http://www.w3.org/2000/svg"><sodipodi:namedview
     id="namedview1"
     pagecolor="#ffffff"
     bordercolor="#000000"
     borderopacity="0.25"
     inkscape:showpageshadow="2"
     inkscape:pageopacity="0.0"
     inkscape:pagecheckerboard="0"
     inkscape:deskcolor="#d1d1d1"
     inkscape:document-units="mm"
     inkscape:zoom="1.0167041"
     inkscape:cx="329.98785"
     inkscape:cy="266.54756"
     inkscape:window-width="1500"
     inkscape:window-height="930"
     inkscape:window-x="-6"
     inkscape:window-y="-6"
     inkscape:window-maximized="1"
     inkscape:current-layer="layer1"><inkscape:page
       x="0"
       y="8.226886e-24"
       width="170.6701"
       height="40.622147"
       id="page2"
       margin="0"
       bleed="0" /></sodipodi:namedview><defs
     id="defs1"><linearGradient
       id="gBack"
       x1="72.83886"
       y1="51.401131"
       x2="331.8215"
       y2="310.38376"
       gradientTransform="scale(0.9884833,1.0116509)"
       gradientUnits="userSpaceOnUse"><stop
         offset="0"
         stop-color="#0c55b8"
         id="stop1-0"
         style="stop-color:#004737;stop-opacity:1;" /><stop
         offset="1"
         stop-color="#073474"
         id="stop2-9"
         style="stop-color:#004d3b;stop-opacity:1;" /></linearGradient><linearGradient
       inkscape:collect="always"
       xlink:href="#gBack"
       id="linearGradient2"
       gradientUnits="userSpaceOnUse"
       gradientTransform="scale(0.9884833,1.0116509)"
       x1="72.83886"
       y1="51.401131"
       x2="331.8215"
       y2="310.38376" /></defs><g
     inkscape:label="Ebene 1"
     inkscape:groupmode="layer"
     id="layer1"
     transform="translate(-4.7210395,-4.2331011)"><path
       d="M 54.233483,39.548093 V 23.121861 h 6.835076 q 1.830037,0 3.086809,0.529167 1.256772,0.529167 1.896182,1.466234 0.650435,0.937067 0.650435,2.17179 0,0.948092 -0.385851,1.697745 -0.374827,0.738629 -1.058335,1.234724 -0.683507,0.496094 -1.60955,0.705556 v 0.02205 q 1.025262,0.06615 1.841061,0.573264 0.826824,0.496094 1.300869,1.355991 0.48507,0.859897 0.48507,2.028474 0,1.355991 -0.661459,2.403301 -0.661459,1.04731 -1.940279,1.642624 -1.278821,0.595313 -3.108858,0.595313 z m 3.869535,-3.042712 h 2.811201 q 1.080383,0 1.697744,-0.496094 0.617362,-0.507119 0.617362,-1.389064 0,-0.606337 -0.275608,-1.036286 -0.275608,-0.429948 -0.793751,-0.661459 -0.507118,-0.242535 -1.223699,-0.242535 h -2.833249 z m 0,-6.713809 h 2.590714 q 0.639411,0 1.091408,-0.220486 0.463021,-0.220486 0.705556,-0.628386 0.253559,-0.4079 0.253559,-0.97014 0,-0.826824 -0.551216,-1.311894 -0.551216,-0.496094 -1.499307,-0.496094 h -2.590714 z m 16.249843,10.021104 q -1.78594,0 -3.141931,-0.771702 -1.344966,-0.782726 -2.105644,-2.160766 -0.749654,-1.37804 -0.749654,-3.152955 0,-1.774915 0.749654,-3.152954 0.760678,-1.37804 2.09462,-2.149742 1.333942,-0.782726 3.053736,-0.782726 1.311894,0 2.392277,0.440972 1.080383,0.429949 1.863109,1.234724 0.793751,0.804775 1.223699,1.907207 0.429949,1.091407 0.429949,2.414325 v 1.025261 h -10.57232 v -2.271009 h 8.797405 l -1.741842,0.463021 q 0,-0.749653 -0.275608,-1.289845 -0.275608,-0.540191 -0.793751,-0.826823 -0.507119,-0.297657 -1.223699,-0.297657 -0.716581,0 -1.234724,0.297657 -0.507118,0.286632 -0.793751,0.826823 -0.275608,0.540192 -0.275608,1.289845 v 1.675697 q 0,0.771702 0.286633,1.355991 0.297656,0.573264 0.837848,0.881945 0.551216,0.308681 1.311893,0.308681 0.562241,0 1.003213,-0.154341 0.440973,-0.15434 0.73863,-0.440972 0.297656,-0.286633 0.440972,-0.661459 h 3.406514 q -0.209462,1.168577 -1.014237,2.072571 -0.804775,0.89297 -2.028474,1.411113 -1.212675,0.507118 -2.678909,0.507118 z m 7.397317,-0.264583 V 27.906414 h 3.671097 v 2.050523 h 0.03307 q 0.319705,-1.113456 0.992189,-1.598526 0.683507,-0.496094 1.852085,-0.496094 0.308681,0 0.551216,0.01102 0.253559,0 0.48507,0.01102 v 3.130906 q -0.209462,-0.01103 -0.650435,-0.02205 -0.429948,-0.01102 -0.848873,-0.01102 -0.672483,0 -1.190626,0.30868 -0.518143,0.297657 -0.815799,0.881946 -0.286632,0.584289 -0.286632,1.411112 v 5.964156 z m 14.576343,4.762505 q -1.796964,0 -2.98759,-0.496095 -1.190626,-0.496094 -1.841061,-1.378039 -0.650435,-0.870921 -0.826824,-1.984377 h 3.627 q 0.09922,0.352778 0.374827,0.617361 0.275608,0.264584 0.694532,0.4079 0.418924,0.143316 0.959116,0.143316 1.058334,0 1.60955,-0.595313 0.55122,-0.584289 0.55122,-1.741842 v -1.796964 h -0.011 q -0.308679,0.683508 -0.804774,1.124481 -0.48507,0.440972 -1.135504,0.650434 -0.639411,0.209462 -1.400089,0.209462 -1.521355,0 -2.65686,-0.749653 -1.135505,-0.760678 -1.763891,-2.083596 -0.617361,-1.322918 -0.617361,-3.031687 0,-1.730818 0.63941,-3.075784 0.63941,-1.344967 1.763891,-2.105645 1.12448,-0.771702 2.601739,-0.771702 0.760677,0 1.378039,0.220486 0.628386,0.209462 1.135505,0.628386 0.507118,0.418924 0.859895,1.036286 h 0.011 v -1.631599 h 3.770309 v 11.002268 q 0,1.896183 -0.7276,3.086809 -0.71658,1.190626 -2.050529,1.752866 -1.333938,0.562241 -3.15295,0.562241 z m -0.132292,-7.816241 q 0.727605,0 1.267796,-0.363803 0.540192,-0.363802 0.837848,-1.025261 0.308678,-0.672483 0.308678,-1.565453 0,-0.89297 -0.308678,-1.554429 -0.297656,-0.661459 -0.837848,-1.025261 -0.540191,-0.363803 -1.267796,-0.363803 -0.683508,0 -1.201651,0.352779 -0.507118,0.352778 -0.782726,1.014237 -0.264584,0.661459 -0.264584,1.576477 0,0.926043 0.264584,1.587502 0.275608,0.661459 0.782726,1.014237 0.518143,0.352778 1.201651,0.352778 z m 8.475931,-8.587943 h 3.80339 v 12.347235 q 0,1.267796 -0.47405,2.138717 -0.47404,0.870921 -1.42213,1.311894 -0.93707,0.451998 -2.35921,0.451998 h -1.48828 v -2.943493 h 0.7717 q 0.61737,0 0.89297,-0.319706 0.27561,-0.308681 0.27561,-1.025261 z m 1.88516,-1.135504 q -0.91502,0 -1.49931,-0.540192 -0.58429,-0.540191 -0.58429,-1.37804 0,-0.837848 0.58429,-1.367015 0.58429,-0.540191 1.49931,-0.540191 0.91502,0 1.49931,0.540191 0.59531,0.529167 0.59531,1.367015 0,0.837849 -0.59531,1.37804 -0.58429,0.540192 -1.49931,0.540192 z m 9.67935,13.041766 q -1.81901,0 -3.20808,-0.749653 -1.37803,-0.749654 -2.14974,-2.116669 -0.7717,-1.367015 -0.7717,-3.219101 0,-1.84106 0.7717,-3.208076 0.77171,-1.367015 2.14974,-2.116669 1.38907,-0.760677 3.20808,-0.760677 1.83004,0 3.19705,0.760677 1.37804,0.749654 2.14974,2.116669 0.77171,1.367016 0.77171,3.208076 0,1.852086 -0.77171,3.219101 -0.7717,1.367015 -2.14974,2.116669 -1.36701,0.749653 -3.19705,0.749653 z m 0,-3.020662 q 0.66146,0 1.16858,-0.352779 0.51814,-0.363802 0.8158,-1.04731 0.29765,-0.683507 0.29765,-1.664672 0,-0.981164 -0.29765,-1.664671 -0.29766,-0.683508 -0.8158,-1.036286 -0.50712,-0.363803 -1.16858,-0.363803 -0.66146,0 -1.1796,0.363803 -0.51814,0.352778 -0.8158,1.036286 -0.28663,0.683507 -0.28663,1.664671 0,0.981165 0.28663,1.664672 0.29766,0.683508 0.8158,1.04731 0.51814,0.352779 1.1796,0.352779 z m 11.54246,-3.571879 v 6.327958 h -3.79237 V 23.121861 h 3.79237 v 7.904435 h -0.60634 q 0.54019,-1.543405 1.56545,-2.458423 1.02527,-0.915018 2.70096,-0.915018 1.2678,0 2.16077,0.551216 0.89297,0.540191 1.36701,1.565453 0.47405,1.025261 0.47405,2.458422 v 7.320147 h -3.79237 v -6.526396 q 0,-1.036286 -0.49609,-1.576477 -0.4961,-0.551216 -1.40009,-0.551216 -0.59531,0 -1.04731,0.253559 -0.44097,0.25356 -0.68351,0.771702 -0.24253,0.507119 -0.24253,1.30087 z m 13.33943,6.526395 q -1.16858,0 -2.07258,-0.374826 -0.89297,-0.385851 -1.41111,-1.146529 -0.50712,-0.771702 -0.50712,-1.929256 0,-0.981164 0.35278,-1.642623 0.35278,-0.672483 0.97014,-1.091407 0.62839,-0.418924 1.44419,-0.628386 0.82682,-0.220487 1.75286,-0.297657 1.03629,-0.08819 1.66467,-0.187413 0.62839,-0.110243 0.904,-0.297657 Q 144.49,31.952338 144.49,31.59956 v -0.05512 q 0,-0.352778 -0.19844,-0.606338 -0.19844,-0.264583 -0.56224,-0.407899 -0.3638,-0.154341 -0.8599,-0.154341 -0.52917,0 -0.91502,0.165365 -0.38585,0.15434 -0.60633,0.451997 -0.22049,0.286632 -0.26459,0.683508 h -3.52778 q 0.0882,-1.267797 0.73863,-2.160767 0.65044,-0.903994 1.83004,-1.378039 1.19062,-0.48507 2.87734,-0.48507 1.2678,0 2.23794,0.275608 0.98116,0.264583 1.65365,0.793751 0.67248,0.518143 1.01423,1.27882 0.34176,0.749654 0.34176,1.708769 v 7.83829 h -3.70417 v -1.6316 h -0.0441 q -0.35278,0.628386 -0.82682,1.036286 -0.47405,0.396875 -1.10243,0.595313 -0.62839,0.198437 -1.45521,0.198437 z m 1.15755,-2.480471 q 0.62839,0 1.1355,-0.242535 0.51815,-0.242535 0.8158,-0.661459 0.29766,-0.429948 0.29766,-1.003213 v -1.058334 q -0.15434,0.06615 -0.3638,0.132292 -0.20946,0.06615 -0.47405,0.121267 -0.25356,0.05512 -0.56224,0.110243 -0.30868,0.05512 -0.66146,0.121268 -0.50712,0.07717 -0.90399,0.242535 -0.38585,0.165365 -0.61736,0.440972 -0.22049,0.264584 -0.22049,0.650435 0,0.363803 0.19844,0.617362 0.19844,0.253559 0.54019,0.396875 0.35278,0.132292 0.8158,0.132292 z m 11.88421,-4.045924 v 6.327958 h -3.79236 V 27.906414 h 3.74827 v 3.119882 h -0.56224 q 0.54019,-1.543405 1.56545,-2.458423 1.02526,-0.915018 2.70096,-0.915018 1.26779,0 2.16076,0.551216 0.89297,0.540191 1.36702,1.565453 0.47404,1.025261 0.47404,2.458422 v 7.320147 h -3.79236 v -6.526396 q 0,-1.036286 -0.4961,-1.576477 -0.49609,-0.551216 -1.40008,-0.551216 -0.59532,0 -1.04731,0.253559 -0.44098,0.25356 -0.68351,0.771702 -0.24254,0.507119 -0.24254,1.30087 z m 13.57093,0 v 6.327958 h -3.79236 V 27.906414 h 3.74827 v 3.119882 h -0.56224 q 0.54019,-1.543405 1.56545,-2.458423 1.02526,-0.915018 2.70096,-0.915018 1.26779,0 2.16076,0.551216 0.89297,0.540191 1.36702,1.565453 0.47404,1.025261 0.47404,2.458422 v 7.320147 h -3.79236 v -6.526396 q 0,-1.036286 -0.4961,-1.576477 -0.49609,-0.551216 -1.40008,-0.551216 -0.59532,0 -1.04731,0.253559 -0.44098,0.25356 -0.68351,0.771702 -0.24254,0.507119 -0.24254,1.30087 z"
       id="text14-2"
       style="font-weight:800;font-size:22.5778px;font-family:Inter;-inkscape-font-specification:'Inter Ultra-Bold';fill:#00231b;fill-opacity:1;stroke-width:0.264583"
       aria-label="Bergjohann"
       inkscape:export-filename="..\..\Workspace\bergjohann-com\static\branding\logo-light.svg"
       inkscape:export-xdpi="96"
       inkscape:export-ydpi="96" /><path
       d="M 54.429377,16.66701 V 5.4347454 H 56.716 v 9.3241686 h 5.68566 V 16.66701 Z M 65.638469,10.9659 63.668574,10.610546 q 0.332178,-1.1896614 1.143312,-1.7613171 0.811133,-0.5716548 2.410225,-0.5716548 1.452315,0 2.163023,0.3476288 0.710707,0.3399017 0.996535,0.8729324 0.293553,0.5253047 0.293553,1.9389947 l -0.02318,2.533827 q 0,1.08151 0.100426,1.599091 0.108151,0.509856 0.393979,1.096962 h -2.147573 q -0.08498,-0.216303 -0.208577,-0.641182 -0.05407,-0.193128 -0.07725,-0.254928 -0.556206,0.540756 -1.189663,0.811133 -0.633457,0.270378 -1.35189,0.270378 -1.266913,0 -2.000795,-0.687532 -0.726158,-0.687532 -0.726158,-1.738143 0,-0.695257 0.332179,-1.236013 0.332178,-0.548481 0.927009,-0.834309 0.602557,-0.293553 1.730418,-0.509855 1.521841,-0.285828 2.108947,-0.533031 v -0.216302 q 0,-0.625731 -0.309003,-0.888384 -0.309003,-0.2703767 -1.166487,-0.2703767 -0.579381,0 -0.903835,0.2317507 -0.324453,0.224028 -0.525306,0.795684 z m 2.90463,1.761318 q -0.417153,0.139051 -1.320988,0.332179 -0.903835,0.193127 -1.181938,0.378529 -0.424879,0.301278 -0.424879,0.764782 0,0.45578 0.339903,0.787959 0.339904,0.332178 0.86521,0.332178 0.587106,0 1.120137,-0.386253 0.393978,-0.293554 0.51758,-0.718433 0.08498,-0.278103 0.08498,-1.058336 z M 78.2149,16.66701 v -1.228288 q -0.448054,0.656631 -1.181937,1.03516 -0.726158,0.378529 -1.537291,0.378529 -0.826584,0 -1.483216,-0.363078 -0.656631,-0.363079 -0.950184,-1.019711 -0.293553,-0.656632 -0.293553,-1.815394 V 8.4629759 h 2.170747 v 3.7698371 q 0,1.730418 0.115876,2.124397 0.123602,0.386255 0.44033,0.618007 0.316728,0.224027 0.803408,0.224027 0.556206,0 0.996536,-0.301278 0.440329,-0.309003 0.602555,-0.757058 0.162228,-0.45578 0.162228,-2.217098 V 8.4629759 h 2.170747 V 16.66701 Z m 6.342292,0 H 82.386445 V 8.4629759 h 2.016246 v 1.1664854 q 0.51758,-0.8265824 0.92701,-1.0892354 0.417154,-0.2626518 0.942459,-0.2626518 0.741608,0 1.42914,0.4094288 l -0.672082,1.8926431 q -0.54848,-0.355354 -1.019711,-0.355354 -0.455779,0 -0.772508,0.254928 -0.316728,0.247202 -0.50213,0.903834 -0.177677,0.656632 -0.177677,2.750129 z M 88.636034,7.3505647 V 5.342045 h 2.170747 v 2.0085197 z m 0,9.3164453 V 8.4629759 h 2.170747 V 16.66701 Z m 11.919806,0 h -2.01625 v -1.205114 q -0.502131,0.702983 -1.189664,1.050612 -0.679812,0.339903 -1.375064,0.339903 -1.413689,0 -2.42568,-1.135586 -1.004254,-1.143313 -1.004254,-3.182734 0,-2.085771 0.981078,-3.1672824 0.981086,-1.0892345 2.479752,-1.0892345 1.375065,0 2.379327,1.1433105 V 5.342045 h 2.170755 z m -5.793818,-4.279696 q 0,1.313265 0.363082,1.900371 0.5253,0.849758 1.467762,0.849758 0.749332,0 1.27464,-0.633456 0.525307,-0.641182 0.525307,-1.908095 0,-1.41369 -0.509859,-2.031696 -0.509851,-0.6257307 -1.305536,-0.6257307 -0.772509,0 -1.297817,0.6180057 -0.517579,0.610281 -0.517579,1.830843 z"
       id="text16-3"
       style="font-weight:bold;font-size:19.7556px;font-family:Arial;-inkscape-font-specification:'Arial Bold';fill:#007b5e;fill-opacity:1;stroke-width:0.211887"
       aria-label="Laurid" /><g
       id="g3"
       transform="matrix(0.10951629,0,0,0.10951629,-6.3391333,8.5308609)"
       inkscape:export-filename="..\..\Workspace\bergjohann-com\static\branding\logo.svg"
       inkscape:export-xdpi="96"
       inkscape:export-ydpi="96"><g
         transform="matrix(1,-0.3,0,1,28.991119,0)"
         id="g8"><rect
           x="74"
           y="54"
           width="252"
           height="258"
           rx="26"
           ry="26"
           fill="url(#gBack)"
           stroke="#0c5ac5"
           stroke-width="4"
           id="rect8"
           style="fill:url(#linearGradient2);stroke:#00e5b0;stroke-opacity:1" /></g><g
         transform="matrix(1,-0.3,0,1,28.991119,0)"
         id="g9"><rect
           x="130"
           y="94"
           width="252"
           height="258"
           rx="26"
           ry="26"
           fill="url(#gMiddle)"
           fill-opacity="0.95"
           stroke="#8bc6ff"
           stroke-width="4"
           id="rect9"
           style="fill:#007b5f;fill-opacity:0.930678;stroke:#00be92;stroke-opacity:1" /></g><rect
         x="224.45732"
         y="142.69734"
         width="263.09573"
         height="258"
         rx="27.144796"
         ry="26"
         fill="url(#gFront)"
         stroke="#ffffff"
         stroke-width="4.08711"
         id="rect10"
         style="fill:#00b78d;fill-opacity:0.89528;stroke:#5affd9;stroke-opacity:1"
         transform="matrix(0.95782629,-0.28734789,0,1,0,0)" /><rect
         x="255.77824"
         y="179.69734"
         width="87.698578"
         height="58"
         rx="12.528368"
         ry="12"
         fill="#ffffff"
         fill-opacity="0.96"
         id="rect11"
         transform="matrix(0.95782629,-0.28734789,0,1,0,0)"
         style="stroke-width:1.02178" /><rect
         x="255.77824"
         y="258.69733"
         width="160.78072"
         height="17"
         rx="8.8742609"
         ry="8.5"
         fill="#ffffff"
         fill-opacity="0.96"
         id="rect12"
         transform="matrix(0.95782629,-0.28734789,0,1,0,0)"
         style="stroke-width:1.02178" /><rect
         x="255.77824"
         y="292.69733"
         width="125.28368"
         height="17"
         rx="8.8742609"
         ry="8.5"
         fill="#ffffff"
         fill-opacity="0.96"
         id="rect13-5"
         transform="matrix(0.95782629,-0.28734789,0,1,0,0)"
         style="stroke-width:1.02178" /></g></g></svg>
